<svg width="40" height="40" viewBox="0 0 40 40" fill="none" xmlns="http://www.w3.org/2000/svg">
<path d="M25.56 21.08C29.2272 21.08 32.2 18.1072 32.2 14.44C32.2 10.7729 29.2272 7.80005 25.56 7.80005C21.8929 7.80005 18.92 10.7729 18.92 14.44C18.92 18.1072 21.8929 21.08 25.56 21.08Z" fill="#48EDE5"/>
<path d="M18.36 24.1601C18.2 24.0001 17.92 24.0001 17.76 24.1601L13.6 28.2801C13.08 28.8001 12.24 28.8001 11.72 28.2801C11.48 28.0401 11.32 27.6801 11.32 27.3201C11.32 26.9601 11.44 26.6401 11.72 26.3601L15.84 22.2401C16 22.0801 16 21.8001 15.84 21.6401L13.96 19.7601C13.8 19.6001 13.52 19.6001 13.36 19.7601L11.4 21.7201L9.24005 23.8801C7.32005 25.8001 7.32005 28.8801 9.24005 30.7601C10.2 31.7201 11.44 32.2001 12.68 32.2001C13.92 32.2001 15.16 31.7201 16.12 30.7601L20.24 26.6401C20.4 26.4801 20.4 26.2001 20.24 26.0401L18.36 24.1601ZM13.64 20.6801L14.92 21.9601L13.6 23.3201L12.32 22.0401L13.64 20.6801ZM15.52 30.1601C13.96 31.7201 11.4 31.7201 9.84005 30.1601C8.28005 28.6001 8.28005 26.0401 9.84005 24.4801L11.68 22.6401L12.96 23.9201L11.12 25.7601C10.72 26.1601 10.48 26.7201 10.48 27.3201C10.48 27.9201 10.72 28.4801 11.12 28.8801C11.96 29.7201 13.36 29.7201 14.24 28.8801L16.08 27.0401L17.36 28.3201L15.52 30.1601ZM17.96 27.6801L16.68 26.4001L18.04 25.0401L19.32 26.3201L17.96 27.6801Z" fill="#222222"/>
<path d="M15.5201 18.6401C15.7601 18.6401 15.9601 18.4401 15.9601 18.2001V16.0401H16.9201C17.1601 16.0401 17.3601 15.8401 17.3601 15.6001V13.1201C17.3601 12.8801 17.1601 12.6801 16.9201 12.6801C16.6801 12.6801 16.4801 12.8801 16.4801 13.1201V15.2001H15.5201C15.2801 15.2001 15.0801 15.4001 15.0801 15.6401V18.2401C15.0801 18.4401 15.2801 18.6401 15.5201 18.6401Z" fill="#222222"/>
<path d="M26.8401 22.6401H24.2401C24.0001 22.6401 23.8001 22.8401 23.8001 23.0801V24.0401H21.7601C21.5201 24.0401 21.3201 24.2401 21.3201 24.4801C21.3201 24.7201 21.5201 24.9201 21.7601 24.9201H24.2401C24.4801 24.9201 24.6801 24.7201 24.6801 24.4801V23.5201H26.8401C27.0801 23.5201 27.2801 23.3201 27.2801 23.0801C27.2801 22.8401 27.0801 22.6401 26.8401 22.6401Z" fill="#222222"/>
<path d="M27.9601 14.8401L26.7601 14.3601C26.7201 14.3601 26.6801 14.3201 26.6401 14.3201C27.0401 13.8801 27.2801 13.2001 27.2801 12.6001C27.2801 11.4801 26.5201 10.6001 25.5601 10.6001C24.6001 10.6001 23.8401 11.4801 23.8401 12.6001C23.8401 13.2401 24.0801 13.8801 24.4801 14.3201C24.4401 14.3201 24.4001 14.3201 24.3601 14.3601L23.1601 14.8401C22.6801 15.0401 22.3601 15.4801 22.3601 16.0001V16.8001C22.3601 16.9201 22.4001 17.0401 22.5201 17.1201C23.4001 17.8801 24.4801 18.2401 25.5601 18.2401C26.6401 18.2401 27.7201 17.8801 28.6001 17.1201C28.6801 17.0401 28.7601 16.9201 28.7601 16.8001V16.0401C28.7601 15.5201 28.4401 15.0401 27.9601 14.8401ZM25.5601 11.5201C26.0001 11.5201 26.4001 12.0401 26.4001 12.6401C26.4001 13.3201 25.9601 14.0001 25.5601 14.0001C25.1601 14.0001 24.7201 13.3201 24.7201 12.6401C24.7201 12.0001 25.1201 11.5201 25.5601 11.5201ZM27.8801 16.6001C26.5201 17.6401 24.6001 17.6401 23.2401 16.6001V16.0401C23.2401 15.8801 23.3201 15.7201 23.4801 15.6801L24.6801 15.2001C24.8801 15.1201 24.9601 14.9201 24.9201 14.7201C25.1201 14.8001 25.3201 14.8801 25.5201 14.8801C25.7201 14.8801 25.9601 14.8401 26.1201 14.7201C26.0801 14.9201 26.2001 15.1201 26.3601 15.2001L27.5601 15.6801C27.7201 15.7601 27.8001 15.8801 27.8001 16.0401V16.6001H27.8801Z" fill="#222222"/>
</svg>
