<svg width="40" height="40" viewBox="0 0 40 40" fill="none" xmlns="http://www.w3.org/2000/svg">
<path d="M8.33329 30H4.99996C3.16663 30 1.66663 31.5 1.66663 33.3333C1.66663 35.1667 3.16663 36.6667 4.99996 36.6667H8.33329C10.1666 36.6667 11.6666 35.1667 11.6666 33.3333C11.6666 31.5 10.1666 30 8.33329 30Z" fill="black"/>
<path d="M21.6667 26.6667H18.3333C16.5 26.6667 15 28.1667 15 30.0001V33.3334C15 35.1667 16.5 36.6667 18.3333 36.6667H21.6667C23.5 36.6667 25 35.1667 25 33.3334V30.0001C25 28.1667 23.5 26.6667 21.6667 26.6667Z" fill="black"/>
<path d="M34.9999 20H31.6666C29.8333 20 28.3333 21.5 28.3333 23.3333V33.3333C28.3333 35.1667 29.8333 36.6667 31.6666 36.6667H34.9999C36.8333 36.6667 38.3333 35.1667 38.3333 33.3333V23.3333C38.3333 21.5 36.8333 20 34.9999 20Z" fill="black"/>
<path d="M36.6666 3.33337H25.6666C24.1666 3.33337 23.5 5.16671 24.5 6.16671L27.6666 9.33337C21.5 16.3334 12.6666 21.6667 3.33329 21.6667C2.33329 21.6667 1.66663 22.3334 1.66663 23.3334C1.66663 24.3334 2.33329 25 3.33329 25C14.5 25 24.8333 21.8334 32.3333 14L35.3333 17C36.3333 18 38.1666 17.3334 38.1666 15.8334V5.00004C38.3333 4.00004 37.6666 3.33337 36.6666 3.33337Z" fill="black"/>
</svg>
