<svg width="40" height="40" viewBox="0 0 40 40" fill="none" xmlns="http://www.w3.org/2000/svg">
<path d="M32.4923 26.2109C31.3516 25.0391 28.1094 22.8438 25.9844 22.8438C25.4923 22.8438 25.0626 22.9531 24.711 23.1797C23.6719 23.8438 22.8438 24.3594 22.4454 24.3594C22.2266 24.3594 21.9923 24.1641 21.4766 23.7188L21.3907 23.6406C19.961 22.3984 19.6563 22.0781 19.1016 21.5L18.961 21.3516C18.8594 21.25 18.7735 21.1563 18.6876 21.0703C18.2032 20.5703 17.8516 20.2109 16.6094 18.8047L16.5548 18.7422C15.961 18.0703 15.5704 17.6328 15.5469 17.3125C15.5235 17 15.7969 16.4922 16.4923 15.5469C17.336 14.4062 17.3673 13 16.5938 11.3672C15.9766 10.0781 14.9688 8.84375 14.0782 7.75781L14.0001 7.66406C13.2344 6.72656 12.3438 6.25781 11.3516 6.25781C10.2501 6.25781 9.33601 6.85156 8.85163 7.16406C8.81257 7.1875 8.77351 7.21875 8.73444 7.24219C7.64851 7.92969 6.85944 8.875 6.56257 9.83594C6.11726 11.2812 5.82038 13.1563 7.95319 17.0547C9.79694 20.4297 11.4688 22.6953 14.1251 25.4219C16.6251 27.9844 17.7344 28.8125 20.2188 30.6094C22.9844 32.6094 25.6407 33.7578 27.5001 33.7578C29.2266 33.7578 30.586 33.7578 32.5235 31.4219C34.5548 28.9688 33.711 27.4688 32.4923 26.2109ZM31.5938 30.5781C30.0313 32.4688 29.1329 32.4688 27.5079 32.4688C25.9219 32.4688 23.461 31.375 20.9298 29.5547C18.5079 27.8047 17.4298 27 15.0001 24.5078C12.4298 21.875 10.8126 19.6797 9.03132 16.4219C7.14851 12.9766 7.35944 11.4687 7.74226 10.2266C7.94538 9.5625 8.55476 8.85156 9.38288 8.33594C9.42194 8.3125 9.46101 8.28125 9.50788 8.25781C9.92194 7.99219 10.6094 7.54688 11.3594 7.54688C11.9844 7.54688 12.5391 7.85938 13.0704 8.50781L13.1485 8.60156C15.1407 11.0391 16.6954 13.1953 15.5235 14.7891C14.6954 15.9062 14.2579 16.6641 14.3282 17.4453C14.3907 18.2031 14.8985 18.7734 15.6641 19.6328L15.7188 19.6953C16.9766 21.1172 17.336 21.4922 17.836 22C17.9219 22.0859 18.0079 22.1797 18.1094 22.2812L18.2501 22.4297C18.8282 23.0312 19.1485 23.3594 20.6173 24.6484L20.7032 24.7266C21.3282 25.2734 21.7891 25.6719 22.461 25.6719C23.1563 25.6719 23.9219 25.2344 25.3751 24.3047C25.5235 24.2109 25.7344 24.1562 26.0001 24.1562C27.6954 24.1562 30.6173 26.0938 31.6407 27.1484C32.5782 28.1016 33.0469 28.8203 31.5938 30.5781Z" fill="black"/>
</svg>
