<svg width="40" height="40" viewBox="0 0 40 40" fill="none" xmlns="http://www.w3.org/2000/svg">
<g clip-path="url(#clip0_30_437)">
<path d="M37.5 5.83337H2.5C1.83696 5.83337 1.20107 6.09677 0.732233 6.56561C0.263392 7.03445 0 7.67033 0 8.33337L0 31.6667C0 32.3298 0.263392 32.9656 0.732233 33.4345C1.20107 33.9033 1.83696 34.1667 2.5 34.1667H37.5C38.163 34.1667 38.7989 33.9033 39.2678 33.4345C39.7366 32.9656 40 32.3298 40 31.6667V8.33337C40 7.67033 39.7366 7.03445 39.2678 6.56561C38.7989 6.09677 38.163 5.83337 37.5 5.83337ZM36.9667 7.50004L20 20.6167L3.03333 7.50004H36.9667ZM1.66667 31.325V8.55004L14.5083 18.475L1.66667 31.325ZM2.84167 32.5L15.8333 19.5084L19.4833 22.3334C19.629 22.4455 19.8078 22.5064 19.9917 22.5064C20.1756 22.5064 20.3543 22.4455 20.5 22.3334L24.1667 19.5084L37.1583 32.5H2.84167ZM38.3333 31.325L25.4917 18.475L38.3333 8.55004V31.325Z" fill="black"/>
</g>
<defs>
<clipPath id="clip0_30_437">
<rect width="40" height="40" fill="white"/>
</clipPath>
</defs>
</svg>
