<svg width="40" height="40" viewBox="0 0 40 40" fill="none" xmlns="http://www.w3.org/2000/svg">
<path fill-rule="evenodd" clip-rule="evenodd" d="M30.8333 39.1667H9.16659C7.32575 39.1667 5.83325 37.6742 5.83325 35.8334V4.16671C5.83325 2.32587 7.32575 0.833374 9.16659 0.833374H24.9774C24.9791 0.833374 24.9816 0.833374 24.9833 0.833374H24.9999C25.2666 0.833374 25.4941 0.967541 25.6466 1.16254L33.8374 9.35337C34.0333 9.50587 34.1666 9.73337 34.1666 10V10.0175C34.1666 10.0192 34.1666 10.02 34.1666 10.0217V35.8334C34.1666 37.6742 32.6741 39.1667 30.8333 39.1667ZM25.8333 3.65087V9.16671H31.3491L25.8333 3.65087ZM32.4999 10.8334H24.9999C24.5391 10.8334 24.1666 10.46 24.1666 10V2.50004H9.16659C8.24659 2.50004 7.49992 3.24671 7.49992 4.16671V35.8334C7.49992 36.7534 8.24659 37.5 9.16659 37.5H30.8333C31.7533 37.5 32.4999 36.7534 32.4999 35.8334V10.8334ZM27.4999 32.5H12.4999C12.0391 32.5 11.6666 32.1275 11.6666 31.6667C11.6666 31.2067 12.0391 30.8334 12.4999 30.8334H27.4999C27.9608 30.8334 28.3333 31.2067 28.3333 31.6667C28.3333 32.1275 27.9608 32.5 27.4999 32.5ZM27.4999 25.8334H12.4999C12.0391 25.8334 11.6666 25.4609 11.6666 25C11.6666 24.54 12.0391 24.1667 12.4999 24.1667H27.4999C27.9608 24.1667 28.3333 24.54 28.3333 25C28.3333 25.4609 27.9608 25.8334 27.4999 25.8334ZM27.4999 19.1667H12.4999C12.0391 19.1667 11.6666 18.7942 11.6666 18.3334C11.6666 17.8734 12.0391 17.5 12.4999 17.5H27.4999C27.9608 17.5 28.3333 17.8734 28.3333 18.3334C28.3333 18.7942 27.9608 19.1667 27.4999 19.1667Z" fill="black"/>
</svg>
