<svg width="40" height="40" viewBox="0 0 40 40" fill="none" xmlns="http://www.w3.org/2000/svg">
<path d="M20 5C11.725 5 5 11.725 5 20C5 28.275 11.725 35 20 35C28.275 35 35 28.275 35 20C35 11.725 28.275 5 20 5ZM20 32.5C13.1 32.5 7.5 26.9 7.5 20C7.5 13.1 13.1 7.5 20 7.5C26.9 7.5 32.5 13.1 32.5 20C32.5 26.9 26.9 32.5 20 32.5Z" fill="black"/>
<path d="M21.075 11.375C18.675 10.775 16 12.3 15.275 14.65C15.05 15.325 15.425 16.025 16.075 16.225C16.725 16.425 17.425 16.075 17.65 15.4C18 14.3 19.35 13.525 20.5 13.8C21.625 14.075 22.475 15.4 22.25 16.55C22.05 17.7 20.825 18.625 19.65 18.475C19.3 18.425 18.925 18.55 18.675 18.775C18.4 19.025 18.25 19.35 18.25 19.725L18.225 23.625C18.225 24.325 18.775 24.875 19.475 24.875C20.175 24.875 20.725 24.325 20.725 23.625L20.75 20.9C22.675 20.525 24.375 18.95 24.725 16.975C25.175 14.55 23.5 11.975 21.075 11.375Z" fill="black"/>
<path d="M19.525 25.975H19.5C18.825 25.975 18.275 26.55 18.25 27.225C18.25 27.25 18.25 27.475 18.25 27.5C18.25 28.175 18.8 28.625 19.475 28.65H19.5C20.175 28.65 20.725 28.025 20.75 27.35C20.75 27.325 20.75 27.175 20.75 27.15C20.725 26.475 20.2 25.975 19.525 25.975Z" fill="black"/>
</svg>
