<svg width="40" height="40" viewBox="0 0 40 40" fill="none" xmlns="http://www.w3.org/2000/svg">
<path d="M2.85718 10.0893C2.85718 9.25097 3.55493 8.57141 4.41562 8.57141H35.5845C36.4452 8.57141 37.1429 9.25097 37.1429 10.0893C37.1429 10.9276 36.4452 11.6071 35.5845 11.6071H4.41562C3.55493 11.6071 2.85718 10.9276 2.85718 10.0893Z" fill="black"/>
<path d="M9.87012 20.7143C9.87012 19.876 10.5679 19.1964 11.4286 19.1964H28.5714C29.4321 19.1964 30.1298 19.876 30.1298 20.7143C30.1298 21.5526 29.4321 22.2321 28.5714 22.2321H11.4286C10.5679 22.2321 9.87012 21.5526 9.87012 20.7143Z" fill="black"/>
<path d="M17.6622 29.8214C16.8016 29.8214 16.1038 30.501 16.1038 31.3393C16.1038 32.1776 16.8016 32.8571 17.6622 32.8571H22.3376C23.1982 32.8571 23.896 32.1776 23.896 31.3393C23.896 30.501 23.1982 29.8214 22.3376 29.8214H17.6622Z" fill="black"/>
</svg>
