<svg width="40" height="40" viewBox="0 0 40 40" fill="none" xmlns="http://www.w3.org/2000/svg">
<path fill-rule="evenodd" clip-rule="evenodd" d="M32.7239 7.55921C29.4422 4.2738 25.0781 2.4637 20.4284 2.46179C10.8481 2.46179 3.05063 10.2586 3.04689 19.8419C3.04555 22.9054 3.84593 25.8956 5.36704 28.5315L2.90112 37.5384L12.1153 35.1213C14.654 36.5061 17.5125 37.236 20.4215 37.2369H20.4286C20.428 37.2369 20.4291 37.2369 20.4286 37.2369C30.008 37.2369 37.806 29.4394 37.8101 19.8558C37.8117 15.2114 36.0055 10.8445 32.7239 7.55921ZM20.4285 34.3015H20.4227C17.8304 34.3005 15.2878 33.604 13.0697 32.2878L12.5422 31.9747L7.07441 33.409L8.53392 28.0779L8.19038 27.5313C6.74428 25.2312 5.98052 22.5726 5.98164 19.8429C5.98475 11.8776 12.4657 5.39739 20.4344 5.39739C24.293 5.39859 27.9204 6.90333 30.648 9.63404C33.3755 12.3647 34.8768 15.9945 34.8752 19.8546C34.872 27.8205 28.3913 34.3015 20.4285 34.3015Z" fill="black"/>
<path fill-rule="evenodd" clip-rule="evenodd" d="M28.353 23.4816C27.9187 23.2643 25.7834 22.2138 25.3853 22.0687C24.9873 21.9238 24.6977 21.8513 24.4082 22.2861C24.1187 22.7208 23.2864 23.6991 23.033 23.989C22.7797 24.2787 22.5263 24.3152 22.0921 24.0976C21.6578 23.8802 20.2584 23.4217 18.5996 21.9421C17.3084 20.7904 16.4369 19.3683 16.1834 18.9334C15.9301 18.4987 16.1565 18.2637 16.3739 18.047C16.5693 17.8524 16.8083 17.5398 17.0254 17.2862C17.2425 17.0327 17.3149 16.8513 17.4597 16.5617C17.6045 16.2718 17.5322 16.0182 17.4235 15.8008C17.3149 15.5835 16.4464 13.4458 16.0845 12.576C15.7319 11.7293 15.3739 11.844 15.1072 11.8305C14.8543 11.8179 14.5644 11.8153 14.2749 11.8153C13.9854 11.8153 13.5148 11.924 13.1168 12.3587C12.7187 12.7936 11.5967 13.8443 11.5967 15.9818C11.5967 18.1196 13.1529 20.1847 13.3701 20.4745C13.5872 20.7645 16.4325 25.1511 20.7892 27.0323C21.8254 27.4798 22.6344 27.747 23.2651 27.9471C24.3055 28.2777 25.2523 28.231 26.0006 28.1192C26.835 27.9945 28.5701 27.0686 28.932 26.0542C29.294 25.0397 29.294 24.17 29.1853 23.9889C29.0768 23.8078 28.7872 23.6991 28.353 23.4816Z" fill="black"/>
</svg>
