<svg width="40" height="40" viewBox="0 0 40 40" fill="none" xmlns="http://www.w3.org/2000/svg">
<path d="M3.11957 25.5906L2.7516 24.9554C2.6284 24.7422 2.54842 24.5068 2.51622 24.2626C2.48402 24.0185 2.50023 23.7704 2.56393 23.5325C2.62762 23.2946 2.73756 23.0716 2.88746 22.8762C3.03735 22.6808 3.22427 22.5169 3.43753 22.3937L10.2243 18.482C10.3665 18.3995 10.5237 18.346 10.6867 18.3243C10.8498 18.3027 11.0155 18.3135 11.1743 18.356C11.3332 18.3985 11.4821 18.472 11.6126 18.5722C11.743 18.6724 11.8524 18.7973 11.9344 18.9398L12.9274 20.6586C13.093 20.9457 13.1377 21.2868 13.0519 21.6069C12.966 21.927 12.7566 22.1999 12.4696 22.3656L5.68441 26.2773C5.25309 26.5258 4.74083 26.593 4.26 26.4643C3.77917 26.3356 3.36903 26.0213 3.11957 25.5906Z" stroke="black" stroke-width="2.5" stroke-linecap="round" stroke-linejoin="round"/>
<path d="M13.3344 21.3844L11.4938 18.2031C11.2454 17.7723 11.1782 17.2605 11.3072 16.7803C11.4361 16.3 11.7505 15.8906 12.1813 15.6422L21.9047 10.0367C22.047 9.95423 22.2042 9.90064 22.3672 9.87902C22.5303 9.85739 22.696 9.86815 22.8548 9.91068C23.0137 9.95321 23.1626 10.0267 23.293 10.1269C23.4235 10.227 23.5328 10.352 23.6149 10.4945L26.0813 14.7594C26.2468 15.0462 26.2916 15.387 26.2061 15.7069C26.1206 16.0268 25.9116 16.2996 25.625 16.4656L15.8993 22.0703C15.6859 22.194 15.4502 22.2744 15.2057 22.3068C14.9613 22.3393 14.7128 22.3232 14.4745 22.2595C14.2363 22.1957 14.0129 22.0857 13.8173 21.9355C13.6217 21.7853 13.4576 21.598 13.3344 21.3844Z" stroke="black" stroke-width="2.5" stroke-linecap="round" stroke-linejoin="round"/>
<path d="M26.707 15.7976L23.0734 9.51404C22.825 9.08327 22.7578 8.57145 22.8868 8.09119C23.0157 7.61092 23.3301 7.20154 23.7609 6.9531L31.0492 2.75154C31.4805 2.50297 31.9928 2.43559 32.4738 2.56418C32.9547 2.69276 33.365 3.00681 33.6148 3.43748L37.2484 9.72107C37.3715 9.9344 37.4514 10.1699 37.4835 10.4141C37.5156 10.6583 37.4992 10.9065 37.4354 11.1444C37.3715 11.3823 37.2614 11.6052 37.1114 11.8006C36.9613 11.9959 36.7743 12.1598 36.5609 12.2828L29.2726 16.4844C28.8412 16.7331 28.3288 16.8004 27.8477 16.6717C27.3667 16.5429 26.9564 16.2286 26.707 15.7976Z" stroke="black" stroke-width="2.5" stroke-linecap="round" stroke-linejoin="round"/>
<path d="M9.96802 37.5L17.479 21.2507" stroke="black" stroke-width="2.5" stroke-linecap="round" stroke-linejoin="round"/>
<path d="M21.2344 20.0016L28.793 35" stroke="black" stroke-width="2.5" stroke-linecap="round" stroke-linejoin="round"/>
</svg>
