<svg width="40" height="40" viewBox="0 0 40 40" fill="none" xmlns="http://www.w3.org/2000/svg">
<path d="M10 10C10 9.07957 10.7462 8.33337 11.6667 8.33337H28.3333C29.2538 8.33337 30 9.07957 30 10C30 10.9205 29.2538 11.6667 28.3333 11.6667H11.6667C10.7462 11.6667 10 10.9205 10 10Z" fill="black"/>
<path d="M10 16.6667C10 15.7462 10.7462 15 11.6667 15H28.3333C29.2538 15 30 15.7462 30 16.6667C30 17.5872 29.2538 18.3333 28.3333 18.3333H11.6667C10.7462 18.3333 10 17.5872 10 16.6667Z" fill="black"/>
<path d="M11.6667 21.6666C10.7462 21.6666 10 22.4128 10 23.3333C10 24.2538 10.7462 25 11.6667 25H28.3333C29.2538 25 30 24.2538 30 23.3333C30 22.4128 29.2538 21.6666 28.3333 21.6666H11.6667Z" fill="black"/>
<path d="M10 30C10 29.0795 10.7462 28.3334 11.6667 28.3334H18.3333C19.2538 28.3334 20 29.0795 20 30C20 30.9205 19.2538 31.6667 18.3333 31.6667H11.6667C10.7462 31.6667 10 30.9205 10 30Z" fill="black"/>
<path fill-rule="evenodd" clip-rule="evenodd" d="M3.33325 6.66663C3.33325 3.90521 5.57184 1.66663 8.33325 1.66663H31.6666C34.4281 1.66663 36.6666 3.90521 36.6666 6.66663V33.3333C36.6666 36.0948 34.4281 38.3333 31.6666 38.3333H8.33325C5.57184 38.3333 3.33325 36.0948 3.33325 33.3333V6.66663ZM8.33325 4.99996H31.6666C32.5871 4.99996 33.3333 5.74614 33.3333 6.66663V33.3333C33.3333 34.2538 32.5871 35 31.6666 35H8.33325C7.41279 35 6.66659 34.2538 6.66659 33.3333V6.66663C6.66659 5.74616 7.41277 4.99996 8.33325 4.99996Z" fill="black"/>
</svg>
