<svg width="40" height="40" viewBox="0 0 40 40" fill="none" xmlns="http://www.w3.org/2000/svg">
<path d="M33.1666 18.3333C32.1666 18.3333 31.4999 18.9999 31.4999 19.9999C31.4999 26.4999 26.3333 31.6666 19.8333 31.6666C19.4999 31.6666 18.9999 31.6666 18.6666 31.6666C18.3333 31.6666 18.1666 31.6666 17.8333 31.4999C17.4999 31.4999 17.3333 31.3333 16.9999 31.3333C16.8333 31.3333 16.6666 31.1666 16.4999 31.1666C15.3333 30.8333 14.1666 30.1666 13.1666 29.4999C12.9999 29.3333 12.8333 29.3333 12.8333 29.1666C12.6666 28.9999 12.4999 28.8333 12.3333 28.8333C11.9999 28.6666 11.6666 28.3333 11.4999 28.1666C11.3333 27.9999 11.3333 27.9999 11.1666 27.8333L14.1666 27.3333C14.9999 27.1666 15.6666 26.3333 15.4999 25.3333C15.3333 24.4999 14.4999 23.8333 13.4999 23.9999L7.99992 24.9999L6.66659 25.3333C6.16659 25.3333 5.83325 25.6666 5.66659 25.9999C5.49992 26.3333 5.33325 26.8333 5.33325 27.1666L6.66659 34.1666C6.83325 34.9999 7.49992 35.4999 8.33325 35.4999C8.49992 35.4999 8.49992 35.4999 8.66658 35.4999C9.49992 35.3333 10.1666 34.4999 9.99992 33.4999L9.49992 30.6666C9.83325 30.9999 10.3333 31.3333 10.6666 31.6666C10.6666 31.6666 10.6666 31.6666 10.8333 31.6666C10.9999 31.8333 11.1666 31.9999 11.3333 31.9999C11.6666 32.3333 11.9999 32.4999 12.4999 32.6666C12.8333 33.3333 13.3333 33.4999 13.8333 33.8333H13.9999C14.1666 33.9999 14.4999 33.9999 14.8333 34.1666C15.4999 34.3333 16.1666 34.4999 16.6666 34.6666C16.9999 34.6666 17.3333 34.8333 17.6666 34.8333H17.8333C17.9999 34.8333 18.3333 34.8333 18.4999 34.8333C18.8333 34.8333 19.3333 34.8333 19.6666 34.8333C27.9999 34.8333 34.6666 28.1666 34.6666 19.8333C34.8332 18.9999 33.9999 18.3333 33.1666 18.3333Z" fill="black"/>
<path d="M6.66664 21.6666C7.66664 21.6666 8.3333 21 8.3333 20C8.3333 13.5 13.5 8.33329 20 8.33329C20.3333 8.33329 20.8333 8.33329 21.1666 8.33329C21.5 8.33329 21.6666 8.33329 22 8.49995C22.3333 8.49995 22.5 8.66662 22.8333 8.66662C23 8.66662 23.1666 8.83329 23.3333 8.83329C24.5 9.16662 25.6666 9.66662 26.6666 10.5C26.8333 10.6666 27 10.6666 27.1666 10.8333C27.3333 11 27.5 11 27.6666 11.1666C27.8333 11.3333 28 11.6666 28.3333 11.8333C28.5 12 28.5 12 28.6666 12.1666L25.6666 12.6666C24.8333 12.8333 24.1666 13.6666 24.3333 14.6666C24.5 15.5 25.1666 16 26 16C26.1666 16 26.1666 16 26.3333 16L33.3333 14.6666C34.1666 14.5 34.8333 13.6666 34.6666 12.6666L33.3333 5.83329C33.1666 4.99995 32.3333 4.33329 31.3333 4.49995C30.5 4.66662 29.8333 5.49995 30 6.49995L30.5 9.33329C30.1666 8.99995 29.6666 8.49995 29.3333 8.33329C29.3333 8.33329 29.3333 8.33329 29.1666 8.33329C29 8.16662 28.8333 7.99995 28.6666 7.99995C28.3333 7.66662 28 7.49995 27.5 7.16662C27 6.83329 26.5 6.66662 26 6.33329H25.8333C25.6666 6.16662 25.3333 6.16662 25 5.99995C24.3333 5.83329 23.6666 5.66662 23.1666 5.49995C22.8333 5.49995 22.5 5.33329 22.1666 5.33329H22C21.8333 5.33329 21.5 5.33329 21.3333 5.33329C21 5.33329 20.5 5.33329 20.1666 5.33329C11.8333 5.33329 5.16664 12 5.16664 20.3333C4.99997 21 5.66664 21.6666 6.66664 21.6666Z" fill="black"/>
</svg>
