<svg width="928" height="643" viewBox="0 0 928 643" fill="none" xmlns="http://www.w3.org/2000/svg">
<path fill-rule="evenodd" clip-rule="evenodd" d="M607.3 100.667C607.3 100.167 607.35 99.6667 607.4 99.1667C607.45 98.6667 607.5 98.1667 607.5 97.6667C607.5 44.0833 554.7 0 490.7 0C444.6 0 404.9 23.25 386.3 55.8333C378.2 52.4167 369.2 50.5 359.5 50.5C329.9 50.5 305.4 70.25 300.6 93.8333C265.4 104 240 130.667 240 163.667C240 205.167 280.1 240 329.6 240H606C651 240 688 207.583 688 169.75C688 131.75 652.6 100.75 607.3 100.667ZM605.5 226.333L602.3 226.667H330.4C289.5 226.667 256.2 197.583 256.2 163.25C256.2 136.667 276.4 114.583 306.4 105.917L314.8 103.417L316.3 96.0833C319.9 78.0833 338.4 63.3333 360.2 63.3333C367.1 63.3333 373.9 64.6667 380.1 67.3333L393.6 73L400.1 61.5833C416.7 32.5 452.2 13.0833 490.5 13.0833C545.8 13.0833 591.4 49.8333 591.4 96.1667C591.4 107.25 591.2 113.083 591.2 113.083L606.4 113.167C643.1 113.583 672 138.583 672 169.333C672 200.083 642.2 226.167 605.5 226.333ZM430.586 185.276C430.063 185.276 429.564 185.068 429.195 184.702L423.298 178.805C422.932 178.436 422.724 177.937 422.724 177.414V116.483C422.724 115.394 423.605 114.517 424.69 114.517C425.775 114.517 426.655 115.394 426.655 116.483V176.6L431.4 181.345H496.6L501.345 176.6V111.4L496.6 106.655H431.4L427.799 110.252C427.033 111.019 425.786 111.019 425.02 110.252C424.253 109.489 424.253 108.243 425.02 107.477L429.199 103.298C429.564 102.932 430.063 102.724 430.586 102.724H497.414C497.937 102.724 498.436 102.932 498.805 103.298L504.702 109.195C505.068 109.564 505.276 110.063 505.276 110.586V177.414C505.276 177.937 505.068 178.436 504.702 178.805L498.805 184.702C498.436 185.068 497.937 185.276 497.414 185.276H430.586ZM408.966 173.483H416.828C417.913 173.483 418.793 174.363 418.793 175.448C418.793 176.533 417.913 177.414 416.828 177.414H408.966C407.881 177.414 407 176.533 407 175.448C407 174.363 407.881 173.483 408.966 173.483ZM416.828 165.621H408.966C407.881 165.621 407 166.501 407 167.586C407 168.671 407.881 169.552 408.966 169.552H416.828C417.913 169.552 418.793 168.671 418.793 167.586C418.793 166.501 417.913 165.621 416.828 165.621ZM408.966 157.759H416.828C417.913 157.759 418.793 158.639 418.793 159.724C418.793 160.809 417.913 161.69 416.828 161.69H408.966C407.881 161.69 407 160.809 407 159.724C407 158.639 407.881 157.759 408.966 157.759ZM416.828 149.897H408.966C407.881 149.897 407 150.777 407 151.862C407 152.947 407.881 153.828 408.966 153.828H416.828C417.913 153.828 418.793 152.947 418.793 151.862C418.793 150.777 417.913 149.897 416.828 149.897ZM408.966 142.034H416.828C417.913 142.034 418.793 142.915 418.793 144C418.793 145.085 417.913 145.966 416.828 145.966H408.966C407.881 145.966 407 145.085 407 144C407 142.915 407.881 142.034 408.966 142.034ZM416.828 134.172H408.966C407.881 134.172 407 135.053 407 136.138C407 137.223 407.881 138.103 408.966 138.103H416.828C417.913 138.103 418.793 137.223 418.793 136.138C418.793 135.053 417.913 134.172 416.828 134.172ZM408.966 126.31H416.828C417.913 126.31 418.793 127.191 418.793 128.276C418.793 129.361 417.913 130.241 416.828 130.241H408.966C407.881 130.241 407 129.361 407 128.276C407 127.191 407.881 126.31 408.966 126.31ZM416.828 118.448H408.966C407.881 118.448 407 119.329 407 120.414C407 121.499 407.881 122.379 408.966 122.379H416.828C417.913 122.379 418.793 121.499 418.793 120.414C418.793 119.329 417.913 118.448 416.828 118.448ZM408.966 110.586H416.828C417.913 110.586 418.793 111.467 418.793 112.552C418.793 113.637 417.913 114.517 416.828 114.517H408.966C407.881 114.517 407 113.637 407 112.552C407 111.467 407.881 110.586 408.966 110.586ZM519.034 173.483H511.172C510.087 173.483 509.207 174.363 509.207 175.448C509.207 176.533 510.087 177.414 511.172 177.414H519.034C520.119 177.414 521 176.533 521 175.448C521 174.363 520.119 173.483 519.034 173.483ZM511.172 165.621H519.034C520.119 165.621 521 166.501 521 167.586C521 168.671 520.119 169.552 519.034 169.552H511.172C510.087 169.552 509.207 168.671 509.207 167.586C509.207 166.501 510.087 165.621 511.172 165.621ZM519.034 157.759H511.172C510.087 157.759 509.207 158.639 509.207 159.724C509.207 160.809 510.087 161.69 511.172 161.69H519.034C520.119 161.69 521 160.809 521 159.724C521 158.639 520.119 157.759 519.034 157.759ZM511.172 149.897H519.034C520.119 149.897 521 150.777 521 151.862C521 152.947 520.119 153.828 519.034 153.828H511.172C510.087 153.828 509.207 152.947 509.207 151.862C509.207 150.777 510.087 149.897 511.172 149.897ZM519.034 142.034H511.172C510.087 142.034 509.207 142.915 509.207 144C509.207 145.085 510.087 145.966 511.172 145.966H519.034C520.119 145.966 521 145.085 521 144C521 142.915 520.119 142.034 519.034 142.034ZM511.172 134.172H519.034C520.119 134.172 521 135.053 521 136.138C521 137.223 520.119 138.103 519.034 138.103H511.172C510.087 138.103 509.207 137.223 509.207 136.138C509.207 135.053 510.087 134.172 511.172 134.172ZM519.034 126.31H511.172C510.087 126.31 509.207 127.191 509.207 128.276C509.207 129.361 510.087 130.241 511.172 130.241H519.034C520.119 130.241 521 129.361 521 128.276C521 127.191 520.119 126.31 519.034 126.31ZM511.172 118.448H519.034C520.119 118.448 521 119.329 521 120.414C521 121.499 520.119 122.379 519.034 122.379H511.172C510.087 122.379 509.207 121.499 509.207 120.414C509.207 119.329 510.087 118.448 511.172 118.448ZM511.172 114.517H519.034C520.119 114.517 521 113.637 521 112.552C521 111.467 520.119 110.586 519.034 110.586H511.172C510.087 110.586 509.207 111.467 509.207 112.552C509.207 113.637 510.087 114.517 511.172 114.517ZM493.483 191.172C493.483 190.087 494.363 189.207 495.448 189.207C496.533 189.207 497.414 190.087 497.414 191.172V199.034C497.414 200.119 496.533 201 495.448 201C494.363 201 493.483 200.119 493.483 199.034V191.172ZM487.586 189.207C486.501 189.207 485.621 190.087 485.621 191.172V199.034C485.621 200.119 486.501 201 487.586 201C488.671 201 489.552 200.119 489.552 199.034V191.172C489.552 190.087 488.671 189.207 487.586 189.207ZM477.759 191.172C477.759 190.087 478.639 189.207 479.724 189.207C480.809 189.207 481.69 190.087 481.69 191.172V199.034C481.69 200.119 480.809 201 479.724 201C478.639 201 477.759 200.119 477.759 199.034V191.172ZM471.862 189.207C470.777 189.207 469.897 190.087 469.897 191.172V199.034C469.897 200.119 470.777 201 471.862 201C472.947 201 473.828 200.119 473.828 199.034V191.172C473.828 190.087 472.947 189.207 471.862 189.207ZM462.034 191.172C462.034 190.087 462.915 189.207 464 189.207C465.085 189.207 465.966 190.087 465.966 191.172V199.034C465.966 200.119 465.085 201 464 201C462.915 201 462.034 200.119 462.034 199.034V191.172ZM456.138 189.207C455.053 189.207 454.172 190.087 454.172 191.172V199.034C454.172 200.119 455.053 201 456.138 201C457.223 201 458.103 200.119 458.103 199.034V191.172C458.103 190.087 457.223 189.207 456.138 189.207ZM446.31 191.172C446.31 190.087 447.191 189.207 448.276 189.207C449.361 189.207 450.241 190.087 450.241 191.172V199.034C450.241 200.119 449.361 201 448.276 201C447.191 201 446.31 200.119 446.31 199.034V191.172ZM440.414 189.207C439.329 189.207 438.448 190.087 438.448 191.172V199.034C438.448 200.119 439.329 201 440.414 201C441.499 201 442.379 200.119 442.379 199.034V191.172C442.379 190.087 441.499 189.207 440.414 189.207ZM430.586 191.172C430.586 190.087 431.467 189.207 432.552 189.207C433.637 189.207 434.517 190.087 434.517 191.172V199.034C434.517 200.119 433.637 201 432.552 201C431.467 201 430.586 200.119 430.586 199.034V191.172ZM495.448 87C494.363 87 493.483 87.8806 493.483 88.9655V96.8276C493.483 97.9125 494.363 98.7931 495.448 98.7931C496.533 98.7931 497.414 97.9125 497.414 96.8276V88.9655C497.414 87.8806 496.533 87 495.448 87ZM485.621 88.9655C485.621 87.8806 486.501 87 487.586 87C488.671 87 489.552 87.8806 489.552 88.9655V96.8276C489.552 97.9125 488.671 98.7931 487.586 98.7931C486.501 98.7931 485.621 97.9125 485.621 96.8276V88.9655ZM479.724 87C478.639 87 477.759 87.8806 477.759 88.9655V96.8276C477.759 97.9125 478.639 98.7931 479.724 98.7931C480.809 98.7931 481.69 97.9125 481.69 96.8276V88.9655C481.69 87.8806 480.809 87 479.724 87ZM469.897 88.9655C469.897 87.8806 470.777 87 471.862 87C472.947 87 473.828 87.8806 473.828 88.9655V96.8276C473.828 97.9125 472.947 98.7931 471.862 98.7931C470.777 98.7931 469.897 97.9125 469.897 96.8276V88.9655ZM464 87C462.915 87 462.034 87.8806 462.034 88.9655V96.8276C462.034 97.9125 462.915 98.7931 464 98.7931C465.085 98.7931 465.966 97.9125 465.966 96.8276V88.9655C465.966 87.8806 465.085 87 464 87ZM454.172 88.9655C454.172 87.8806 455.053 87 456.138 87C457.223 87 458.103 87.8806 458.103 88.9655V96.8276C458.103 97.9125 457.223 98.7931 456.138 98.7931C455.053 98.7931 454.172 97.9125 454.172 96.8276V88.9655ZM448.276 87C447.191 87 446.31 87.8806 446.31 88.9655V96.8276C446.31 97.9125 447.191 98.7931 448.276 98.7931C449.361 98.7931 450.241 97.9125 450.241 96.8276V88.9655C450.241 87.8806 449.361 87 448.276 87ZM438.448 88.9655C438.448 87.8806 439.329 87 440.414 87C441.499 87 442.379 87.8806 442.379 88.9655V96.8276C442.379 97.9125 441.499 98.7931 440.414 98.7931C439.329 98.7931 438.448 97.9125 438.448 96.8276V88.9655ZM432.552 87C431.467 87 430.586 87.8806 430.586 88.9655V96.8276C430.586 97.9125 431.467 98.7931 432.552 98.7931C433.637 98.7931 434.517 97.9125 434.517 96.8276V88.9655C434.517 87.8806 433.637 87 432.552 87ZM481.69 159.724C481.69 160.81 480.81 161.69 479.724 161.69C478.639 161.69 477.759 160.81 477.759 159.724C477.759 158.639 478.639 157.759 479.724 157.759C480.81 157.759 481.69 158.639 481.69 159.724ZM471.862 161.69C472.948 161.69 473.828 160.81 473.828 159.724C473.828 158.639 472.948 157.759 471.862 157.759C470.776 157.759 469.896 158.639 469.896 159.724C469.896 160.81 470.776 161.69 471.862 161.69ZM465.965 159.724C465.965 160.81 465.086 161.69 464 161.69C462.914 161.69 462.034 160.81 462.034 159.724C462.034 158.639 462.914 157.759 464 157.759C465.086 157.759 465.965 158.639 465.965 159.724ZM456.138 161.69C457.223 161.69 458.103 160.81 458.103 159.724C458.103 158.639 457.223 157.759 456.138 157.759C455.052 157.759 454.172 158.639 454.172 159.724C454.172 160.81 455.052 161.69 456.138 161.69ZM450.241 159.724C450.241 160.81 449.361 161.69 448.276 161.69C447.19 161.69 446.31 160.81 446.31 159.724C446.31 158.639 447.19 157.759 448.276 157.759C449.361 157.759 450.241 158.639 450.241 159.724ZM479.724 153.828C480.81 153.828 481.69 152.948 481.69 151.862C481.69 150.777 480.81 149.897 479.724 149.897C478.639 149.897 477.759 150.777 477.759 151.862C477.759 152.948 478.639 153.828 479.724 153.828ZM473.828 151.862C473.828 152.948 472.948 153.828 471.862 153.828C470.776 153.828 469.896 152.948 469.896 151.862C469.896 150.777 470.776 149.897 471.862 149.897C472.948 149.897 473.828 150.777 473.828 151.862ZM464 153.828C465.086 153.828 465.965 152.948 465.965 151.862C465.965 150.777 465.086 149.897 464 149.897C462.914 149.897 462.034 150.777 462.034 151.862C462.034 152.948 462.914 153.828 464 153.828ZM458.103 151.862C458.103 152.948 457.223 153.828 456.138 153.828C455.052 153.828 454.172 152.948 454.172 151.862C454.172 150.777 455.052 149.897 456.138 149.897C457.223 149.897 458.103 150.777 458.103 151.862ZM448.276 153.828C449.361 153.828 450.241 152.948 450.241 151.862C450.241 150.777 449.361 149.897 448.276 149.897C447.19 149.897 446.31 150.777 446.31 151.862C446.31 152.948 447.19 153.828 448.276 153.828ZM481.69 144C481.69 145.086 480.81 145.966 479.724 145.966C478.639 145.966 477.759 145.086 477.759 144C477.759 142.915 478.639 142.035 479.724 142.035C480.81 142.035 481.69 142.915 481.69 144ZM471.862 145.966C472.948 145.966 473.828 145.086 473.828 144C473.828 142.915 472.948 142.035 471.862 142.035C470.776 142.035 469.896 142.915 469.896 144C469.896 145.086 470.776 145.966 471.862 145.966ZM465.965 144C465.965 145.086 465.086 145.966 464 145.966C462.914 145.966 462.034 145.086 462.034 144C462.034 142.915 462.914 142.035 464 142.035C465.086 142.035 465.965 142.915 465.965 144ZM456.138 145.966C457.223 145.966 458.103 145.086 458.103 144C458.103 142.915 457.223 142.035 456.138 142.035C455.052 142.035 454.172 142.915 454.172 144C454.172 145.086 455.052 145.966 456.138 145.966ZM450.241 144C450.241 145.086 449.361 145.966 448.276 145.966C447.19 145.966 446.31 145.086 446.31 144C446.31 142.915 447.19 142.035 448.276 142.035C449.361 142.035 450.241 142.915 450.241 144ZM479.724 138.104C480.81 138.104 481.69 137.224 481.69 136.138C481.69 135.052 480.81 134.173 479.724 134.173C478.639 134.173 477.759 135.052 477.759 136.138C477.759 137.224 478.639 138.104 479.724 138.104ZM473.828 136.138C473.828 137.224 472.948 138.104 471.862 138.104C470.776 138.104 469.896 137.224 469.896 136.138C469.896 135.052 470.776 134.173 471.862 134.173C472.948 134.173 473.828 135.052 473.828 136.138ZM464 138.104C465.086 138.104 465.965 137.224 465.965 136.138C465.965 135.052 465.086 134.173 464 134.173C462.914 134.173 462.034 135.052 462.034 136.138C462.034 137.224 462.914 138.104 464 138.104ZM458.103 136.138C458.103 137.224 457.223 138.104 456.138 138.104C455.052 138.104 454.172 137.224 454.172 136.138C454.172 135.052 455.052 134.173 456.138 134.173C457.223 134.173 458.103 135.052 458.103 136.138ZM448.276 138.103C449.361 138.103 450.241 137.224 450.241 136.138C450.241 135.052 449.361 134.172 448.276 134.172C447.19 134.172 446.31 135.052 446.31 136.138C446.31 137.224 447.19 138.103 448.276 138.103ZM481.69 128.276C481.69 129.361 480.81 130.241 479.724 130.241C478.639 130.241 477.759 129.361 477.759 128.276C477.759 127.19 478.639 126.31 479.724 126.31C480.81 126.31 481.69 127.19 481.69 128.276ZM471.862 130.241C472.948 130.241 473.828 129.361 473.828 128.276C473.828 127.19 472.948 126.31 471.862 126.31C470.777 126.31 469.897 127.19 469.897 128.276C469.897 129.361 470.777 130.241 471.862 130.241ZM465.966 128.276C465.966 129.361 465.086 130.241 464 130.241C462.914 130.241 462.034 129.361 462.034 128.276C462.034 127.19 462.914 126.31 464 126.31C465.086 126.31 465.966 127.19 465.966 128.276ZM456.138 130.241C457.223 130.241 458.103 129.361 458.103 128.276C458.103 127.19 457.223 126.31 456.138 126.31C455.052 126.31 454.172 127.19 454.172 128.276C454.172 129.361 455.052 130.241 456.138 130.241ZM450.241 128.276C450.241 129.361 449.361 130.241 448.276 130.241C447.19 130.241 446.31 129.361 446.31 128.276C446.31 127.19 447.19 126.31 448.276 126.31C449.361 126.31 450.241 127.19 450.241 128.276Z" fill="url(#paint0_linear_5_26)"/>
<path d="M6.5 424L64 259H103.75L161.25 424H131.75L85.5 281.25H82.25L36 424H6.5ZM35.25 388.5V368.5H136V388.5H35.25ZM185.986 424V294H212.986V424H185.986ZM199.486 272.25C193.653 272.25 189.236 271.083 186.236 268.75C183.236 266.25 181.736 262.583 181.736 257.75C181.736 253.083 183.236 249.5 186.236 247C189.236 244.5 193.653 243.25 199.486 243.25C205.486 243.25 209.986 244.5 212.986 247C215.986 249.5 217.486 253.083 217.486 257.75C217.486 262.583 215.986 266.25 212.986 268.75C209.986 271.083 205.486 272.25 199.486 272.25ZM250.684 424V356.25V294H274.184L272.934 339H277.184C278.684 328.833 281.017 320.167 284.184 313C287.35 305.833 291.684 300.417 297.184 296.75C302.684 292.917 309.517 291 317.684 291C319.35 291 321.184 291.083 323.184 291.25C325.184 291.417 327.434 291.917 329.934 292.75L328.684 321.25C326.184 320.25 323.6 319.583 320.934 319.25C318.267 318.75 315.85 318.5 313.684 318.5C307.017 318.5 301.35 320.417 296.684 324.25C292.017 327.917 288.1 333.083 284.934 339.75C281.934 346.25 279.6 353.833 277.934 362.5V424H250.684ZM416.182 427.25C405.348 427.25 395.682 426.167 387.182 424C378.848 421.667 371.765 418.333 365.932 414C360.265 409.5 355.932 404 352.932 397.5C350.098 390.833 348.765 383.167 348.932 374.5L373.182 368C372.848 376.333 374.432 383.25 377.932 388.75C381.432 394.25 386.598 398.417 393.432 401.25C400.432 403.917 408.432 405.25 417.432 405.25C426.265 405.25 433.682 404.167 439.682 402C445.682 399.833 450.182 396.917 453.182 393.25C456.348 389.417 457.932 385.083 457.932 380.25C457.932 374.75 456.015 370.417 452.182 367.25C448.515 363.917 443.598 361.333 437.432 359.5C431.265 357.5 424.348 355.667 416.682 354C408.848 352.333 401.098 350.417 393.432 348.25C385.765 346.083 378.765 343.25 372.432 339.75C366.265 336.083 361.265 331.417 357.432 325.75C353.765 320.083 351.932 312.917 351.932 304.25C351.932 294.25 354.432 285.667 359.432 278.5C364.432 271.333 371.515 265.75 380.682 261.75C390.015 257.75 401.015 255.75 413.682 255.75C426.348 255.75 437.432 257.75 446.932 261.75C456.598 265.583 464.182 271.25 469.682 278.75C475.348 286.083 478.265 295 478.432 305.5L453.432 312C453.432 306.333 452.432 301.333 450.432 297C448.598 292.667 445.932 289.083 442.432 286.25C438.932 283.417 434.765 281.333 429.932 280C425.098 278.5 419.598 277.75 413.432 277.75C406.265 277.75 400.015 278.833 394.682 281C389.348 283 385.182 285.833 382.182 289.5C379.348 293 377.932 297.167 377.932 302C377.932 308 380.015 312.75 384.182 316.25C388.515 319.583 394.182 322.333 401.182 324.5C408.182 326.5 415.682 328.417 423.682 330.25C430.848 331.75 437.932 333.583 444.932 335.75C452.098 337.75 458.598 340.5 464.432 344C470.432 347.5 475.182 352.083 478.682 357.75C482.348 363.417 484.182 370.667 484.182 379.5C484.182 389.167 481.598 397.583 476.432 404.75C471.432 411.917 463.932 417.5 453.932 421.5C443.932 425.333 431.348 427.25 416.182 427.25ZM558.088 426.75C545.255 426.75 535.671 423.25 529.338 416.25C523.171 409.25 520.088 398.5 520.088 384V316.25H500.838L501.338 294H513.838C518.171 294 521.421 293.333 523.588 292C525.755 290.5 527.088 287.917 527.588 284.25L530.088 265H546.338V294H582.088V316.75H546.338V383.25C546.338 389.75 547.838 394.417 550.838 397.25C553.838 400.083 558.255 401.5 564.088 401.5C567.255 401.5 570.421 401.167 573.588 400.5C576.921 399.667 580.088 398.167 583.088 396V422.25C578.088 423.917 573.505 425.083 569.338 425.75C565.171 426.417 561.421 426.75 558.088 426.75ZM640.059 427.25C632.892 427.25 626.475 425.917 620.809 423.25C615.142 420.417 610.642 416.25 607.309 410.75C604.142 405.25 602.559 398.417 602.559 390.25C602.559 383.75 603.725 378.167 606.059 373.5C608.559 368.667 612.225 364.667 617.059 361.5C622.059 358.167 628.392 355.5 636.059 353.5C643.725 351.333 652.809 349.5 663.309 348C669.142 347.167 673.892 346.333 677.559 345.5C681.392 344.667 684.142 343.333 685.809 341.5C687.642 339.667 688.559 336.917 688.559 333.25C688.559 327.583 686.559 322.75 682.559 318.75C678.725 314.583 672.475 312.5 663.809 312.5C658.975 312.5 654.142 313.333 649.309 315C644.642 316.667 640.559 319.417 637.059 323.25C633.725 326.917 631.475 331.917 630.309 338.25L605.809 330.5C607.309 324.167 609.725 318.583 613.059 313.75C616.392 308.75 620.559 304.583 625.559 301.25C630.559 297.75 636.309 295.167 642.809 293.5C649.475 291.667 656.725 290.75 664.559 290.75C676.059 290.75 685.559 292.667 693.059 296.5C700.559 300.333 706.142 306.25 709.809 314.25C713.642 322.083 715.559 332.167 715.559 344.5V371C715.559 376.5 715.642 382.333 715.809 388.5C716.142 394.5 716.475 400.583 716.809 406.75C717.309 412.75 717.892 418.5 718.559 424H693.809C693.309 419 692.809 413.833 692.309 408.5C691.975 403.167 691.642 397.75 691.309 392.25H687.559C685.225 398.583 681.892 404.417 677.559 409.75C673.392 415.083 668.142 419.333 661.809 422.5C655.642 425.667 648.392 427.25 640.059 427.25ZM649.559 406.25C653.059 406.25 656.559 405.667 660.059 404.5C663.725 403.333 667.309 401.583 670.809 399.25C674.475 396.75 677.809 393.583 680.809 389.75C683.975 385.917 686.725 381.333 689.059 376L688.809 352.5L695.309 353.75C692.475 356.25 688.892 358.167 684.559 359.5C680.392 360.833 675.809 361.917 670.809 362.75C665.809 363.417 660.809 364.25 655.809 365.25C650.975 366.083 646.475 367.333 642.309 369C638.309 370.5 635.059 372.667 632.559 375.5C630.225 378.333 629.059 382.25 629.059 387.25C629.059 393.417 630.975 398.167 634.809 401.5C638.642 404.667 643.559 406.25 649.559 406.25ZM761.91 424V335.25H739.41V314.25L772.66 316V311.5C767.993 310 764.077 307.833 760.91 305C757.91 302 755.577 298.583 753.91 294.75C752.41 290.75 751.66 286.5 751.66 282C751.66 275 753.327 268.917 756.66 263.75C759.993 258.417 764.66 254.333 770.66 251.5C776.827 248.5 783.993 247 792.16 247C798.993 247 805.16 247.917 810.66 249.75C816.16 251.417 820.66 253.667 824.16 256.5L821.66 281.5C818.16 278.667 814.077 276.333 809.41 274.5C804.743 272.667 800.16 271.75 795.66 271.75C790.327 271.75 785.91 273.417 782.41 276.75C779.077 279.917 777.41 284.917 777.41 291.75C777.41 295.917 778.077 299.417 779.41 302.25C780.743 305.083 782.493 307.417 784.66 309.25C786.827 310.917 788.993 312.25 791.16 313.25H822.41V335.25H788.41V424H761.91ZM861.275 424V335.25H838.775V314.25L872.025 316V311.5C867.359 310 863.442 307.833 860.275 305C857.275 302 854.942 298.583 853.275 294.75C851.775 290.75 851.025 286.5 851.025 282C851.025 275 852.692 268.917 856.025 263.75C859.359 258.417 864.025 254.333 870.025 251.5C876.192 248.5 883.359 247 891.525 247C898.359 247 904.525 247.917 910.025 249.75C915.525 251.417 920.025 253.667 923.525 256.5L921.025 281.5C917.525 278.667 913.442 276.333 908.775 274.5C904.109 272.667 899.525 271.75 895.025 271.75C889.692 271.75 885.275 273.417 881.775 276.75C878.442 279.917 876.775 284.917 876.775 291.75C876.775 295.917 877.442 299.417 878.775 302.25C880.109 305.083 881.859 307.417 884.025 309.25C886.192 310.917 888.359 312.25 890.525 313.25H921.775V335.25H887.775V424H861.275Z" fill="url(#paint1_linear_5_26)"/>
<path fill-rule="evenodd" clip-rule="evenodd" d="M377 453V449H369V453V503.832C365.468 505.375 363 508.899 363 513C363 518.523 367.477 523 373 523C378.523 523 383 518.523 383 513C383 508.899 380.532 505.375 377 503.832V453ZM417 453V449H409V453V543.832C405.468 545.375 403 548.899 403 553C403 558.523 407.477 563 413 563C418.523 563 423 558.523 423 553C423 548.899 420.532 545.375 417 543.832V453ZM457 449V453V623.832C460.532 625.375 463 628.899 463 633C463 638.523 458.523 643 453 643C447.477 643 443 638.523 443 633C443 628.899 445.468 625.375 449 623.832V453V449H457ZM497 453V449H489V453V573.832C485.468 575.375 483 578.899 483 583C483 588.523 487.477 593 493 593C498.523 593 503 588.523 503 583C503 578.899 500.532 575.375 497 573.832V453ZM529 522.5V453V449H537V453V519.186L557.813 540H558L558 573.832C561.532 575.375 564 578.899 564 583C564 588.523 559.523 593 554 593C548.477 593 544 588.523 544 583C544 578.899 546.468 575.375 550 573.832L550 543.5L529 522.5Z" fill="url(#paint2_linear_5_26)"/>
<defs>
<linearGradient id="paint0_linear_5_26" x1="240" y1="168.5" x2="611.5" y2="168.5" gradientUnits="userSpaceOnUse">
<stop stop-color="#3A78E6"/>
<stop offset="1" stop-color="#D35B6F"/>
</linearGradient>
<linearGradient id="paint1_linear_5_26" x1="0" y1="341" x2="820" y2="341" gradientUnits="userSpaceOnUse">
<stop stop-color="#3A78E6"/>
<stop offset="1" stop-color="#D35B6F"/>
</linearGradient>
<linearGradient id="paint2_linear_5_26" x1="363" y1="539" x2="520.5" y2="539" gradientUnits="userSpaceOnUse">
<stop stop-color="#3A78E6"/>
<stop offset="1" stop-color="#D35B6F"/>
</linearGradient>
</defs>
</svg>
